<svg xmlns="http://www.w3.org/2000/svg" xmlns:xlink="http://www.w3.org/1999/xlink" preserveAspectRatio="xMinYMin meet" viewBox="0 0 1560 900" id="svgmap">

  
  <style type="text/css">
  
text {font-size:20px; font-family:"DejaVu Sans Condensed", sans-serif;}
.mapitem {fill:none; stroke:#646464; stroke-width:1;}
#mapplot-text, #mapplot-graph {display:inline;}
.frame0125 {fill:none;stroke:#646464;stroke-width:0.5;stroke-miterlimit:4;stroke-dasharray:none;stroke-opacity:1;}
.worlddecorationline {fill:none;stroke:#646464;stroke-width:1px;stroke-linecap:butt;stroke-linejoin:miter;stroke-opacity:1;} 
</style>
  <g id="mapplot">
    <path id="MIR-01" class="mapitem" d="M319.071,596.237 313.864,595.703 311.461,600.103 306.297,603.117 302.979,599.236 297.193,598.246 293.37,602.729 289.786,601.194 286.863,603.157 286.371,609.087 282.867,620.805 277.796,621.887 269.117,617.879 264.456,623.902 254.688,629.321 241.981,625.708 237.591,625.645 235.647,622.596 228.568,621.322 222.221,618.697 212.329,619.459 204.006,626.794 196.633,627.285 195.582,629.793 190.128,631.96 187.054,631.276 184.258,625.413 179.553,626.441 173.238,624.304 172.11,618.947 169.364,617.964 166.962,622.309 162.057,626.024 161.543,635.03 155.888,637.115 158.123,648.972 157.284,654.806 158.364,662.175 160.26,663.478 162.471,674.799 167.012,678.293 169.79,687.209 169.365,690.089 175.365,701.52 181.507,702.284 185.977,714.705 184.043,719.341 176.651,731.376 171.276,734.896 171.251,748.289 174.004,751.626 174.643,760.421 172.561,762.58 174.795,767.214 172.452,772.88 173.535,780.491 176.331,785.129 171.364,792.643 174.008,798.915 173.8,809.102 168.322,812.721 175.298,814.501 186.904,814.566 193.455,817.64 209.207,817.098 212.406,818.04 219.673,814.421 221.55,810.464 221.808,803.355 226.535,801.625 230.71,797.197 238.043,797.201 241.289,806.523 247.853,801.888 252.152,797.072 258.96,795.449 266.836,797.34 274.595,795.819 279.277,800.643 284.021,799.555 290.815,803.476 295.268,803.147 296.63,798.572 301.361,794.391 304.445,796.012 313.673,795.66 318.166,798.161 324.124,787.502 328.126,787.8 334.17,784.325 340.239,784.262 347.912,778.844 353.878,787.002 363.887,780.548 368.694,783.794 373.203,779.163 371.329,774.135 370.843,765.815 370.857,759.887 373.205,752.604 376.643,747.074 374.743,744.45 379.478,731.376 373.506,726.933 367.539,723.203 358.3,712.621 349.204,703.49 346.787,702.675 341.368,695.08 336.041,696.334 333.033,692.147 321.488,685.543 322.569,680.191 319.912,676.378 322.133,670.881 315.953,661.072 318.147,654.534 316.347,645.554 321.673,639.096 328.309,634.378 327.965,631.69 323.029,628.449 324.632,619.77 322.467,615.722 322.539,607.163 317.741,602.671 319.071,596.237 z" >
	<title>Благоевград</title>
	</path>
    <path id="MIR-02" class="mapitem" d="M1058.82,427.246 1047.01,429.726 1042.23,429.688 1039.59,426.479 1029.62,422.697 1026.09,417.318 1015.45,412.588 999.158,412.798 996.64,418.402 992.044,414.787 987.973,415.612 984.497,413.348 978.278,416.137 973.945,413.413 972.693,410.066 965.64,408.869 960.99,402.639 956.008,400.781 958.062,395.151 952.006,394.077 948.685,391.025 938.132,388.627 931.203,391.679 926.198,396.581 919.639,397.267 918.079,399.9 916.14,399.505 904.538,404.506 900.559,404.909 900.235,399.618 891.313,399.739 888.601,402.187 876.852,399.488 874.434,401.508 863.573,398.632 855.609,410.389 847.096,410.187 839.287,411.731 839.464,405.152 832.257,403.722 825.25,405.726 828.935,411.998 825.598,417.86 827.761,426.629 824.497,432.909 827.85,434.099 829.851,443.91 839.31,447.483 843.674,456.385 847.452,457.241 849.228,467.074 854.512,471.041 853.546,473.443 859.232,479.019 861.611,483.558 861.453,493.013 866.123,496.654 865.267,502.679 872.019,510.2 879.032,520.016 878.409,526.634 890.397,526.325 890.492,530.193 893.993,531.362 893.901,536.738 888.122,539.183 882.87,538.531 876.319,541.79 875.268,545.507 879.471,549.421 885.836,558.849 884.044,564.3 885.094,568.479 889.494,570.508 891.711,574.562 889.725,582.956 893.279,588.255 888.613,600.59 890.069,605.355 895.982,610.719 896.098,615.316 910.899,619.766 919.3,620.714 923.2,  625 931.274,625.844 934.458,627.32 936.261,621.688 939.836,617.617 944.45,617.151 956.291,620.662 960.431,625.62 965.453,627.837 967.736,631.011 970.752,641.033 977.88,645.093 980.471,651.326 988.127,655.262 993.307,655.565 997.246,663.894 1000.8,667.253 1003.38,658.936 1008.63,656.394 1022.47,652.265 1028.49,648.8 1040.04,651.565 1040.09,654.286 1049.16,656.352 1047.35,646.3 1048.94,643.506 1053.57,645.095 1056.29,642.931 1062.04,645.083 1063.36,649.309 1085.92,647.392 1080.63,632.077 1074.38,624.735 1071.86,618.997 1064.38,614.141 1064.23,610.495 1057.51,602.051 1053.4,600.183 1051.74,594.204 1042.78,587.475 1040.63,581.944 1036.14,579.704 1035.71,570.067 1041.45,563.745 1040.62,558.012 1033.05,558.44 1027.73,548.28 1029.41,545.193 1025.04,534.302 1021.72,537.587 1016.35,534.502 1017.09,527.025 1010.58,528.701 1004.92,524.798 1001.92,528.247 998.367,525.784 993.923,532.247 988.56,528.188 980.319,524.934 981.006,518.852 986.357,517.165 988.713,505.971 991.664,501.203 996.704,499.051 1000.23,501.259 1004.06,498.22 1011.04,497.502 1015.62,500.646 1013.67,490.385 1013.84,484.018 1016.79,478.482 1022.09,478.799 1023.92,475.977 1028.09,476.731 1030.69,473.223 1028.26,470.342 1029.39,463.028 1031.65,460.54 1037.3,460.663 1045.6,462.614 1062.05,462.64 1062.34,459.648 1060.08,448.909 1062.14,445.536 1058.82,427.246 z" >
	<title>Бургас</title>
	</path>
    <path id="MIR-03" class="mapitem" d="M918.079,399.9 919.639,397.267 926.198,396.581 931.203,391.679 938.132,388.627 948.685,391.025 952.006,394.077 958.062,395.151 956.008,400.781 960.99,402.639 965.64,408.869 972.693,410.066 973.945,413.413 978.278,416.137 984.497,413.348 987.973,415.612 992.044,414.787 996.64,418.402 999.158,412.798 1015.45,412.588 1026.09,417.318 1029.62,422.697 1039.59,426.479 1042.23,429.688 1047.01,429.726 1058.82,427.246 1062.46,423.261 1061.35,407.533 1063.16,403.89 1060.73,390.166 1060.11,375.198 1064.37,369.352 1067.61,352.744 1070.39,343.308 1065.95,341.12 1066.43,333.68 1075.81,329.224 1082.65,327.328 1087.88,314.165 1091.33,303.579 1088.71,303.325 1084.08,297.867 1082.02,290.156 1079.49,286.619 1068.06,283.175 1064.54,285.456 1057.5,294.392 1053.38,291.973 1049.12,285.5 1037.95,273.744 1030.9,267.515 1029.8,263.803 1024.64,262.028 1021.53,263.338 1016.31,261.196 1014.54,253.24 1006.62,248.531 1005.91,253.068 1002.17,257.033 996.75,258.727 991.373,257.874 988.05,254.532 988.722,246.355 985.377,239.181 979.159,235.416 976.98,231.578 976.208,237.115 966.791,244.727 959.963,246.371 954.772,253.18 955.343,255.705 961.067,258.63 958.789,263.323 961.763,268.905 960.469,276.112 951.504,282.958 950.77,295.147 954.683,297.747 955.594,301.678 953.231,307.931 948.066,309.051 943.762,312.002 946.675,321.943 949.959,324.013 948.812,327.546 951.184,339.922 946.552,338.824 945.069,341.528 938.063,344.18 932.633,350.48 930.686,359.908 932.47,364.728 937.684,366.694 938.727,373.314 930.732,378.629 920.35,377.443 912.355,382.381 912.077,390.581 915.731,393.9 918.079,399.9 z" >
	<title>Варна</title>
	</path>
    <path id="MIR-04" class="mapitem" d="M592.818,217.409 582.557,218.239 578.522,222.103 578.519,227.293 575.125,231.033 575.37,239.61 578.305,246.019 577.699,257.582 574.534,262.489 562.84,269.915 563.808,275.888 575.14,273.085 578.121,275.099 576.225,279.74 576.201,289.201 582.858,290.058 585.924,296.88 582.277,298.705 581.183,302.489 566.288,314.881 565.343,317.888 561.821,323.965 559.457,331.829 558.901,338.361 553.571,340.22 554.181,344.526 563.659,350.758 561.419,353.891 567.182,356.807 581.252,359.308 588.676,359.09 593.67,356.774 595.794,359.232 595.161,369.564 598.629,371.088 609.096,371.951 613.507,375.024 624.77,371.193 628.138,375.637 636.45,374.386 639.818,378.315 643.796,378.218 646.26,381.041 644.035,386.828 639.524,392.931 640.899,401.169 639.339,403.302 642.653,408.409 650.988,408.571 648.16,413.461 650.47,423.239 649.505,428.369 646.909,430.797 650.787,440.463 660.837,438.431 662.698,435.33 667.565,436.05 666.808,441.168 671.814,442.294 676.155,441.257 686.05,441.415 690.847,442.828 696.494,441.913 698.773,439.54 703.439,439.33 714.107,441.848 720.29,438.289 722.569,433.779 730.518,430.44 732.109,424.679 729.923,419.761 736.462,416.336 740.966,411.949 746.149,411.61 750.714,404.966 747.663,398.834 750.228,397.978 749.193,395.41 742.24,392.575 737.188,392.381 733.415,389.629 735.605,384.737 740.749,383.567 742.889,378.403 737.201,377.758 734.447,373.856 735.002,369.064 730.166,362.406 731.943,358.539 731.456,351.853 733.457,350.46 733.403,343.572 736.64,343.302 741.151,335.738 739.118,329.932 736.651,329.109 731.385,317.402 737.361,312.872 733.886,307.575 728.686,304.589 720.825,303.75 714.975,303.258 710.14,299.983 709.335,296.207 712.769,290.688 709.924,286.486 702.281,288.502 701.429,290.319 694.413,292.783 691.989,290.93 685.006,291.03 678.853,287.268 670.573,285.435 667.013,278.261 661.81,278.143 660.606,284.235 652.534,283.261 645.273,275.527 639.985,273.518 638.123,270.298 641.551,267.864 640.861,254.077 635.423,255.713 630.297,247.893 627.153,246.989 623.55,237.122 627.55,236.423 634.826,231.913 639.504,223.934 638.125,220.344 631.495,219.392 621.925,223.44 610.356,226.625 601.856,223.637 592.818,217.409 z" >
	<title>Велико Търново</title>
	</path>
    <path id="MIR-05" class="mapitem" d="M190.183,180.997 177.191,177.577 167.992,173.965 158.569,171.753 153.697,167.995 151.349,158.924 156.263,143.76 158.286,133.426 161.274,130.426 167.197,128.477 180.606,125.921 183.098,124.044 188.741,112.522 187.511,108.61 180.222,104.135 165.958,102.833 155.665,93.5499 142.454,86.43 135.844,78.7199 132.034,76.725 125.29,76.1765 121.402,73.0763 116.531,75.9682 114.56,82.984 110.963,84.7023 111.667,89.8247 109.853,101.145 111.556,103.424 111.827,112.271 104.734,112.603 96.2781,115.144 97.8283,119.919 94.0943,123.678 87.2257,123.331 73.7038,127.49 74.3797,135.743 73.5922,144.094 69.901,148.147 70.9983,152.259 68.3186,167.791 64.2863,177.55 67.9333,186.38 71.1452,190.474 73.4102,206.748 77.4685,211.919 82.8698,216.32 85.7765,216.642 88.5289,221.348 86.7369,224.849 89.3929,235.656 87.7836,239.484 90.6901,247.061 91.1896,252.938 94.3464,  258 96.0398,264.553 99.7084,267.01 103.676,266.474 107.583,273.687 112.135,275.569 118.894,276.164 120.046,282.153 122.312,284.303 130.073,283.992 134.465,286.37 138.118,281.082 141.868,272.506 146.441,265.665 143.235,260.688 148.175,258.166 150.021,252.94 155.004,253.78 158.48,249.203 158.94,244.819 169.638,237.494 170.932,233.529 170.171,221.417 171.431,216.064 178.051,213.585 182.11,208.066 186.085,208.932 190.545,207.14 187.525,196.576 178.495,194.69 173.679,191.191 174.799,185.999 184.041,185.624 190.183,180.997 z" >
	<title>Видин</title>
	</path>
    <path id="MIR-06" class="mapitem" d="M292.563,182.168 293.745,197.597 287.812,214.555 284.367,222.404 283.571,227.348 279.307,230.516 278.453,237.522 285.031,242.984 288.256,243.747 295.108,249.059 293.146,253.115 285.398,251.467 281.111,256.821 271.934,260.152 263.645,254.204 258.292,259.447 251.571,271.493 254.213,277.896 254.993,283.812 249.474,289.892 247.705,296.069 243.151,304.927 236.745,310.705 237.373,314.666 246.071,319.785 252.846,319.391 259.968,322.968 263.815,328.17 261.049,333.373 253.495,334.162 249.903,339.665 254.383,344.164 264.61,345.842 267.488,350.888 263.452,353.85 261.536,360.706 268.627,366.735 269.995,372.524 273.834,376.661 273.757,380.049 277.928,384.719 283.758,384.392 287.352,375.278 294.996,370.729 296.506,374.116 303.895,378.649 310.036,375.536 316.042,368.355 323.632,368.569 326.996,372.016 346.261,375.217 349.845,379.42 353.353,377.258 354.309,370.832 354.519,363.922 352.534,360.964 354.558,356.492 360.058,359.191 365.272,357.677 362.985,350.17 365.086,341.524 363.248,339.818 365.604,333.353 359.478,330.381 357.794,327.968 352.186,326.224 354.434,319.929 351.437,314.393 355.701,309.718 353.947,307.645 352.302,297.883 353.986,293.397 358.698,292.395 358.961,286.775 365.09,279.31 368.648,277.379 373.128,270.255 368.277,265.14 363.271,264.107 360.197,250.755 360.336,246.395 365.113,230.117 369.84,229.054 373.185,231.491 375.819,227.728 382.925,232.675 385.63,229.797 390.295,230.756 397.371,219.125 404.463,221.809 414.389,219.836 416.475,215.86 418.369,206.247 412.846,206.058 399.565,209.471 391.447,210.368 382.154,206.263 375.56,205.158 370.925,200.853 354.02,194.252 346.787,194.124 337.027,192.087 317.754,183.634 314.823,179.344 306.86,178.51 292.563,182.168 z" >
	<title>Враца</title>
	</path>
    <path id="MIR-07" class="mapitem" d="M650.787,440.463 646.909,430.797 649.505,428.369 650.47,423.239 648.16,413.461 650.988,408.571 642.653,408.409 639.339,403.302 640.899,401.169 639.524,392.931 644.035,386.828 646.26,381.041 643.796,378.218 639.818,378.315 636.45,374.386 628.138,375.637 624.77,371.193 613.507,375.024 609.096,371.951 598.629,371.088 595.161,369.564 595.794,359.232 593.67,356.774 588.676,359.09 581.252,359.308 567.182,356.807 561.419,353.891 563.659,350.758 554.181,344.526 553.571,340.22 542.262,338.739 539.504,336.044 532.915,335.609 531.91,337.854 535.078,347.167 534.915,350.87 531.903,355.413 528.264,354.446 526.457,361.061 525.932,369.105 529.578,372.459 530.999,376.5 525.437,379.815 518.57,381.275 516.083,393.883 516.77,399.812 519.96,405.402 519.087,411.844 524.495,417.949 529.5,415.297 532.93,416.428 534.043,423.045 541.319,434.957 543.505,444.481 548.931,450.382 564.293,447.43 572.041,439.864 579.827,445.25 580.8,449.196 584.887,451.935 587.9,446.069 592.38,448.961 596.914,448.24 602.214,452.413 612.48,451.49 614.465,453.816 618.381,450.233 618.389,447.106 624.368,446.36 627.829,451.741 636.851,452.162 639.54,446.944 643.402,445.194 645.874,448.888 650.787,440.463 z" >
	<title>Габрово</title>
	</path>
    <path id="MIR-08" class="mapitem" d="M1025.23,131.892 1018.58,133.849 1015.55,136.462 1017.99,141.228 1014.87,143.119 1013.5,152.705 1007.15,156.856 1002.26,150.216 998.88,149.843 997.212,158.78 994.33,163.442 993.434,168.511 987.247,169.808 984.149,164.428 979.043,163.76 974.918,167.285 972.862,165.678 967.193,175.214 958.897,176.551 951.605,179.371 945.641,185.17 944.606,188.166 937.638,195.165 937.113,204.719 942.119,211.246 939.538,214.87 939.847,219.085 948.607,221.561 953.01,225.411 954.525,234.089 973.512,228.862 976.98,231.578 979.159,235.416 985.377,239.181 988.722,246.355 988.05,254.532 991.373,257.874 996.75,258.727 1002.17,257.033 1005.91,253.068 1006.62,248.531 1014.54,253.24 1016.31,261.196 1021.53,263.338 1024.64,262.028 1029.8,263.803 1030.9,267.515 1037.95,273.744 1049.12,285.5 1053.38,291.973 1057.5,294.392 1064.54,285.456 1068.06,283.175 1079.49,286.619 1082.02,290.156 1084.08,297.867 1088.71,303.325 1091.33,303.579 1093.86,294.446 1097.08,288.538 1104.19,283.522 1109.65,281.491 1111.91,283.37 1121.44,282.034 1135.55,278.186 1149.79,281.702 1152.86,284.833 1162.75,289.508 1168.95,281.884 1178.78,272.525 1187.6,254.376 1189.42,246.404 1183.7,236.159 1182.2,230.927 1184.19,222.144 1182.29,217.506 1181.34,209.54 1184.06,203.567 1184.2,195.761 1160.37,197.041 1142.76,192.283 1122.52,190.674 1100.85,180.717 1082.81,170.493 1078.98,168.966 1075.77,154.081 1071.75,143.981 1069.96,132.497 1065.03,126.444 1051.76,137.255 1035.78,139.271 1032.81,140.515 1027.82,139.013 1025.23,131.892 z" >
	<title>Добрич</title>
	</path>
    <path id="MIR-09" class="mapitem" d="M581.65,668.795 577.896,666.914 572.89,669.148 565.722,676.054 565.521,685.502 560.009,688.463 561.315,694.695 553.352,695.942 550.18,701.128 548.869,708.38 554.019,713.029 553.034,715.232 553.922,723.907 556.73,729.686 555.316,735.47 557.648,741.311 554.172,742.815 549.031,748.256 542.899,748.196 540.987,755.94 544.166,757.81 545.321,766.715 550.141,773.302 554.471,771.19 558.619,764.678 566.065,767.876 570.086,772.769 570.774,776.91 567.56,785.643 571.399,786.305 571.399,793.04 567.56,794.728 569.6,801.069 566.726,803.355 563.893,811.793 568.669,813.282 572.686,817.728 572.429,820.55 574.165,824.286 580.038,828.189 583.029,836.935 593.275,836.975 600.592,837.905 606.082,833.154 609.454,834.127 617.68,829.274 625.565,825.822 635.768,827.828 638.155,820.11 643.466,817.896 646.446,820.826 652.908,821.465 658.461,819.117 665.042,822.508 669.197,818.821 680.283,817.239 682.01,814.452 687.515,812.55 692.287,813.229 699.105,821.723 710.894,817.698 704.906,801.318 701.693,798.668 695.946,799.298 692.161,798.072 688.005,794.033 687.557,787.96 696.471,780.135 692.701,775.538 690.461,777.158 685.842,769.041 676.371,763.621 681.114,762.58 681.284,757.36 683.524,747.817 688.252,746.529 690.77,741.595 688.932,739.4 691.241,733.701 684.699,733.099 682.52,730.164 676.618,732.333 673.861,740.019 668.337,743.047 666.491,740.795 660.991,739.574 656.874,743.534 655.368,740.44 648.971,740.159 647.465,735.474 653.977,729.669 656.349,722.465 653.846,718.725 654.487,712.028 649.018,709.59 646.422,704.173 641.332,705.515 633.738,704.749 631.73,702.395 627.535,703.885 621.394,696.956 615.539,695.327 611.414,695.903 607.49,683.492 601.914,689.811 596.437,688.816 591.47,690.634 582.168,685.268 582.152,681.916 578.968,677.409 578.249,672.142 581.65,668.795 z" >
	<title>Кърджали</title>
	</path>
    <path id="MIR-10" class="mapitem" d="M84.1695,478.09 79.2997,491.513 78.8085,495.734 84.7141,498.317 90.2224,505.48 93.5844,507.102 98.5859,512.533 100.585,518.125 97.9247,523.618 96.3555,534.551 93.6268,540.616 86.0018,541.632 82.681,549.978 81.986,557.076 77.8122,559.793 76.1187,557.362 65.9523,560.327 74.65,574.173 78.1529,576.516 84.8696,591.001 90.1651,592.493 91.8744,602.815 94.9952,606.853 98.5626,608.176 101.506,612.025 106.198,614.509 107.947,617.678 113.393,618.746 116.998,623.004 122.507,626.566 128.197,625.412 132.189,630.778 139.749,632.931 143.625,631.181 148.926,637.257 155.888,637.115 161.543,635.03 162.057,626.024 166.962,622.309 169.364,617.964 172.11,618.947 173.238,624.304 179.553,626.441 184.258,625.413 187.054,631.276 190.128,631.96 195.582,629.793 196.633,627.285 204.006,626.794 212.329,619.459 222.221,618.697 228.568,621.322 235.647,622.596 237.591,625.645 241.981,625.708 254.688,629.321 264.456,623.902 269.117,617.879 271.425,613.478 275.297,610.175 272.664,606.309 262.147,603.871 260.366,594.955 254.116,596.353 246.605,599.611 240.606,600.033 237.435,597.469 237.404,592.678 239.772,587.577 243.383,584.092 243.754,580.129 249.81,578.242 249.072,570.112 242.201,566.312 236.292,559.535 238.435,556.989 232.618,546.6 226.495,550.457 223.801,545.202 220.429,545.899 215.404,548.675 210.858,548.724 209.738,544.285 204.033,545.536 199.626,537.577 197.038,540.739 196.748,546.037 194.64,548.438 190.043,545.063 187.089,545.503 178.632,538.872 175.607,542.161 171.587,540.816 164.433,543.33 162.514,550.342 158.269,547.618 153.855,549.093 150.651,546.859 144.962,545.927 142.242,535.94 135.259,534.913 131.837,530.091 131.528,524.4 125.256,520.207 128.095,518.262 127.353,510.809 121.03,508.284 117.442,508.328 117.295,501.714 113.386,499.746 108.748,490.674 109.395,487.283 106.791,480.715 93.2058,482.45 89.6363,477.443 84.1695,478.09 z" >
	<title>Кюстендил</title>
	</path>
    <path id="MIR-11" class="mapitem" d="M553.571,340.22 558.901,338.361 559.457,331.829 561.821,323.965 565.343,317.888 558.978,316.795 557.649,308.906 554.698,304.891 549.515,288.592 543.529,288.432 544.477,303.443 537.936,302.113 535.904,309.613 530.165,309.549 522.718,311.565 519.52,308.047 509.957,306.794 506.125,304.249 495.874,305.204 493.287,309.685 488.265,313.485 483.693,315.084 481.777,321.408 476.053,321.931 473.959,329.046 463.392,331.933 455.134,331.402 446.699,326.384 443.053,329.995 437.112,326.762 437.12,321.931 429.982,318.732 429.855,314.429 419.102,319.049 416.039,323.763 409.89,324.881 405.642,327.936 395.391,325.677 388.886,325.17 383.533,322.485 376.596,326.602 369.482,328.435 365.604,333.353 363.248,339.818 365.086,341.524 362.985,350.17 365.272,357.677 360.058,359.191 354.558,356.492 352.534,360.964 354.519,363.922 354.309,370.832 358.567,373.85 364.665,369.834 368.408,370.354 367.829,376.597 370.478,384.85 372.34,385.94 371.019,394.61 375.716,396.678 376.141,400.846 383.95,403.544 388.508,402.195 391.768,412.774 390.555,414.779 389.728,433.12 386.098,440.82 388.933,445.064 394.215,446.748 401.694,445.68 403.301,444.06 411.891,444.206 419.477,449.439 430.114,449.689 443.47,450.008 447.317,445.912 446.675,441.751 448.946,438.823 455.535,440.485 464.496,439.799 475.435,445.056 479.367,454.278 486.109,458.767 496.052,460.569 502.278,456.483 506.21,457.415 510.443,455.518 512.823,458.153 517.836,456.434 525.02,458.566 538.878,452.235 541.404,453.282 540.238,448.71 543.505,444.481 541.319,434.957 534.043,423.045 532.93,416.428 529.5,415.297 524.495,417.949 519.087,411.844 519.96,405.402 516.77,399.812 516.083,393.883 518.57,381.275 525.437,379.815 530.999,376.5 529.578,372.459 525.932,369.105 526.457,361.061 528.264,354.446 531.903,355.413 534.915,350.87 535.078,347.167 531.91,337.854 532.915,335.609 539.504,336.044 542.262,338.739 553.571,340.22 z" >
	<title>Ловеч</title>
	</path>
    <path id="MIR-12" class="mapitem" d="M292.563,182.168 277.536,175.41 272.027,170.292 266.827,169.961 257.952,167.248 236.328,167.535 228.243,168.146 211.826,174.489 205.287,178.567 190.183,180.997 184.041,185.624 174.799,185.999 173.679,191.191 178.495,194.69 187.525,196.576 190.545,207.14 186.085,208.932 182.11,208.066 178.051,213.585 171.431,216.064 170.171,221.417 170.932,233.529 169.638,237.494 158.94,244.819 158.48,249.203 155.004,253.78 150.021,252.94 148.175,258.166 143.235,260.688 146.441,265.665 141.868,272.506 138.118,281.082 134.465,286.37 137.961,288.65 138.628,292.268 143.317,297.826 148.973,301.099 152.105,309.328 152.743,314.883 156.418,316.962 156.706,320.301 161.343,327.396 169.47,333.618 176.928,333.611 181.129,336.119 183.439,334.29 188.043,338.039 188.39,342.115 192.596,343.013 200.286,356.122 212.422,357.548 218.687,356.331 224.643,356.718 226.497,352.296 232.537,354.535 236.515,351.458 237.945,345.09 249.153,345.83 254.383,344.164 249.903,339.665 253.495,334.162 261.049,333.373 263.815,328.17 259.968,322.968 252.846,319.391 246.071,319.785 237.373,314.666 236.745,310.705 243.151,304.927 247.705,296.069 249.474,289.892 254.993,283.812 254.213,277.896 251.571,271.493 258.292,259.447 263.645,254.204 271.934,260.152 281.111,256.821 285.398,251.467 293.146,253.115 295.108,249.059 288.256,243.747 285.031,242.984 278.453,237.522 279.307,230.516 283.571,227.348 284.367,222.404 287.812,214.555 293.745,197.597 292.563,182.168 z" >
	<title>Монтана</title>
	</path>
    <path id="MIR-13" class="mapitem" d="M439.267,659.66 442.968,654.095 442.056,647.662 444.466,643.585 442.817,636.263 439.854,631.733 439.941,621.776 444.064,619.43 443.763,615.438 440.302,607.777 444.906,605.191 450.036,606.337 455.443,604.668 453.234,596.341 448.437,594.076 449.379,584.447 448.031,574.918 445.161,574.383 444.563,566.084 447.235,559.73 443.524,554.028 438.819,550.22 436.981,540.462 436.676,530.169 437.599,526.04 429.708,522.568 428.306,515.357 433.424,511.375 435.648,506.588 435.834,500.604 433.775,497.45 428.221,497.052 423.841,501.352 421.57,494.589 417.267,493.809 413.019,485.361 410.222,482.275 399.129,481.163 394.958,484.134 389.852,483.639 386.237,487.099 382.305,495.093 379.601,497.028 374.572,495.588 367.504,501.978 365.056,502.449 356.365,496.255 352.526,496.19 344.237,499.035 340.684,502.653 344.94,509.419 343.797,513.095 351.267,518.962 353.816,523.846 362.777,525.328 366.909,522.609 371.259,525.303 368.408,532.551 366.964,540.755 362.159,542.923 355.152,542.956 352.016,544.546 351.418,556.634 353.202,562.566 359.1,565.945 353.422,574.669 346.254,571.435 344.461,566.512 341.835,566.112 341.039,572.162 336.883,576.833 337.022,581.113 331.901,585.583 331.592,588.721 325.026,590.168 319.071,596.237 317.741,602.671 322.539,607.163 322.467,615.722 324.632,619.77 323.029,628.449 327.965,631.69 328.309,634.378 321.673,639.096 316.347,645.554 318.147,654.534 315.953,661.072 322.133,670.881 319.912,676.378 322.569,680.191 321.488,685.543 333.033,692.147 336.041,696.334 341.368,695.08 346.787,702.675 349.204,703.49 358.3,712.621 367.539,723.203 373.506,726.933 384.19,715.759 391.675,709.73 393.228,714.474 401.075,715.02 407.676,719.53 413.979,709.061 418.83,705.422 416.823,701.634 417.708,693.599 424.173,678.766 427.074,679.394 433.52,677.031 439.847,668.651 437.444,661.367 439.267,659.66 z" >
	<title>Пазарджик</title>
	</path>
    <path id="MIR-14" class="mapitem" d="M84.1695,478.09 89.6363,477.443 93.2058,482.45 106.791,480.715 109.395,487.283 108.748,490.674 113.386,499.746 117.295,501.714 117.442,508.328 121.03,508.284 127.353,510.809 128.095,518.262 125.256,520.207 131.528,524.4 131.837,530.091 135.259,534.913 142.242,535.94 144.962,545.927 150.651,546.859 153.855,549.093 158.269,547.618 162.514,550.342 164.433,543.33 171.587,540.816 175.607,542.161 178.632,538.872 187.089,545.503 190.043,545.063 194.64,548.438 196.748,546.037 197.038,540.739 199.626,537.577 204.033,545.536 209.738,544.285 210.858,548.724 215.404,548.675 220.429,545.899 223.556,538.927 219.421,531.689 219.853,521.135 222.078,516.544 225.78,515.068 226.664,510.604 232.363,505.885 233.992,502.847 231.04,498.041 226.538,497.91 220.471,493.113 213.661,490.646 205.134,490.081 210.843,485.147 209.321,477.761 210.259,473.723 205.597,471.311 201.501,471.276 199.738,466.895 196.347,464.02 192.013,464.218 190.155,459.563 187.618,458.866 185.691,454.043 187.185,448.734 177.776,448.37 178.563,444.88 175.274,442.286 169.681,444.74 163.536,439.285 162.532,431.578 159.65,430.683 155.718,434.387 152.323,430.627 154.092,423.781 150.578,422.58 145.464,426.548 140.659,425.051 138.267,420.459 138.652,416.826 134.723,414.038 128.479,414.796 122.659,418.58 117.514,415.742 115.255,417.093 111.498,412.443 105.134,413.574 102.984,418.704 96.3845,416.025 92.7849,419.504 92.8247,422.549 85.5713,428.926 79.1013,431.414 79.3407,435.656 82.8712,443.008 87.6363,450.239 89.8982,451.593 89.3806,457.037 85.6069,460.262 85.6743,469.084 82.563,474.416 84.1695,478.09 z" >
	<title>Перник</title>
	</path>
    <path id="MIR-15" class="mapitem" d="M418.369,206.247 416.475,215.86 414.389,219.836 404.463,221.809 397.371,219.125 390.295,230.756 385.63,229.797 382.925,232.675 375.819,227.728 373.185,231.491 369.84,229.054 365.113,230.117 360.336,246.395 360.197,250.755 363.271,264.107 368.277,265.14 373.128,270.255 368.648,277.379 365.09,279.31 358.961,286.775 358.698,292.395 353.986,293.397 352.302,297.883 353.947,307.645 355.701,309.718 351.437,314.393 354.434,319.929 352.186,326.224 357.794,327.968 359.478,330.381 365.604,333.353 369.482,328.435 376.596,326.602 383.533,322.485 388.886,325.17 395.391,325.677 405.642,327.936 409.89,324.881 416.039,323.763 419.102,319.049 429.855,314.429 429.982,318.732 437.12,321.931 437.112,326.762 443.053,329.995 446.699,326.384 455.134,331.402 463.392,331.933 473.959,329.046 476.053,321.931 481.777,321.408 483.693,315.084 488.265,313.485 493.287,309.685 495.874,305.204 506.125,304.249 509.957,306.794 519.52,308.047 522.718,311.565 530.165,309.549 535.904,309.613 537.936,302.113 544.477,303.443 543.529,288.432 549.515,288.592 554.698,304.891 557.649,308.906 558.978,316.795 565.343,317.888 566.288,314.881 581.183,302.489 582.277,298.705 585.924,296.88 582.858,290.058 576.201,289.201 576.225,279.74 578.121,275.099 575.14,273.085 563.808,275.888 562.84,269.915 574.534,262.489 577.699,257.582 578.305,246.019 575.37,239.61 575.125,231.033 578.519,227.293 578.522,222.103 582.557,218.239 592.818,217.409 585.322,210.041 574.072,206.463 569.35,206.456 560.684,209.665 550.627,207.231 543.871,202.989 541.281,199.368 532.64,197.831 528.653,198.564 521.55,203.069 514.223,204.023 510.336,202.5 504.236,203.406 494.248,209.673 490.104,209.268 484.827,205.908 478.618,199.791 472.131,194.972 460.074,190.839 450.193,189.606 444.983,193.071 433.251,196.376 427.816,202.979 422.868,206.29 418.369,206.247 z" >
	<title>Плевен</title>
	</path>
    <path id="MIR-16" class="mapitem" d="m 1253.3014,480.22808 c -1.5559,0.73967 -2.5833,1.86011 -2.7083,3.63091 -0.6369,1.52435 -1.3846,2.97581 -2.4068,4.25632 1.2086,0.8205 4.002,0.24584 4.0535,1.88581 0.044,1.8557 0.087,3.71141 0.1312,5.56711 2.0565,-0.2581 3.125,0.38424 2.5246,2.54759 -0.3644,1.36503 0.5595,3.35603 -0.4496,4.32345 -2.1353,0.58123 -1.5754,2.27663 -1.0925,3.94019 0.3704,1.71813 0.7409,3.43626 1.1114,5.15439 1.6168,-0.0835 3.695,-0.64505 2.9272,1.74256 1.5965,0.65534 3.4583,1.1164 5.1567,1.69713 -0.2834,-2.53071 1.5498,-1.5888 3.1375,-1.04961 1.1821,0.68934 3.8122,0.31898 3.6526,1.93098 -1.2469,1.91834 -2.4938,3.83668 -3.7407,5.75502 1.1795,0.4582 2.2143,3.86785 3.1097,2.42701 0.9824,-1.16096 1.4908,-3.79302 3.3285,-2.29896 1,-0.51701 2.0954,1.54848 3.7692,1.38707 2.3682,-0.16647 4.7396,-0.57726 7.1091,-0.8377 0.8223,-1.20411 0.8349,-3.68262 2.1958,-4.03927 1.6176,0.0859 3.3544,0.52777 4.4193,-1.03611 1.4566,-1.18541 1.528,-3.73028 3.0035,-4.77873 2.2816,-0.11122 4.5032,-0.68684 6.7538,-1.0385 -0.098,1.85792 0.029,3.45518 2.28,2.57656 1.0719,0.5169 0.3668,3.10031 0.7342,4.43648 -0.5185,2.31929 0.9389,2.27187 2.7516,1.79878 2.795,-0.46842 5.7673,-0.4011 8.4513,-1.20505 2.3633,-0.94679 4.1301,-2.83586 6.0942,-4.41033 -1.2365,-1.84378 -3.498,-3.20357 -3.8981,-5.45831 -0.1502,-2.08776 2.7029,-2.63545 2.8039,-4.7395 0.7341,-3.43981 1.4681,-6.87963 2.2022,-10.31944 2.1388,-1.5912 4.5495,-2.9128 5.8185,-5.36655 1.5284,-1.97613 2.8132,-4.25726 4.4918,-6.04517 2.4829,-1.22757 5.3552,-1.86123 7.5781,-3.48542 1.1771,-1.12633 2.3543,-2.25267 3.5314,-3.37901 -1.7023,0.13466 -2.2045,-0.77889 -3.6111,-1.3897 -1.6004,0.31604 -3.4411,0.10135 -4.7188,1.17491 -2.0741,0.73437 -3.4172,-2.20542 -5.5731,-1.62673 -1.1904,-0.20083 -4.0855,1.45593 -2.9591,-0.8034 0.6962,-3.84673 2.5359,-7.35637 3.7722,-11.04474 -1.1582,0.25976 -3.8591,0.83422 -3.8924,-0.64706 0.4212,-1.23763 1.3882,-3.77856 -0.8185,-3.6169 -2.129,-0.32105 -4.2664,-0.69634 -6.4229,-0.3926 -0.145,-3.47407 -0.2832,-6.94839 -0.3962,-10.42367 -4.3129,0.32909 -8.6692,0.29999 -12.953,0.86863 -0.122,-1.62743 1.4776,-2.57974 -0.3096,-3.87498 -0.9284,-1.81888 -1.3888,-3.78956 -2.6723,-5.44309 -0.5239,-2.34323 -2.1089,-0.46788 -3.6462,-0.37024 -3.5327,0.73406 -6.9906,2.4694 -10.6576,1.80647 -2.915,-0.20448 -5.8299,-0.40895 -8.7449,-0.61343 0.2007,3.16521 0.4917,6.32371 0.7381,9.48553 -2.1803,-0.86169 -2.433,0.57688 -2.3317,2.43786 0.429,3.00291 -1.0547,1.1238 -2.1397,2.43527 -1.8948,0.54954 0.2243,2.88083 -1.797,2.8264 -1.8802,0.90064 -2.7785,-0.65839 -3.8238,0.58725 -1.1665,0.7406 -2.7387,2.64988 -3.6581,2.67863 -0.4824,-2.1726 -0.9648,-4.3452 -1.4472,-6.5178 -1.3322,1.36579 -3.0501,1.95825 -4.9379,1.94574 -2.4923,0.88038 1.8384,1.41151 1.5304,2.92884 0.5036,1.36183 0,3.59056 1.9876,3.60728 1.1481,0.77814 3.8996,0.33777 3.5803,2.23123 0.1506,2.9437 0.3013,5.8874 0.452,8.8311 -1.7478,-0.12533 -3.5246,0.0141 -5.2523,-0.29534 -0.3092,1.48338 0.5031,3.81796 -1.7235,3.45711 -2.2237,0.95066 -3.6213,3.0703 -5.95,3.83936 -0.1504,0.11582 -0.3009,0.23164 -0.4513,0.34746 z">
	<title>Пловдив</title>
	</path>
	<path id="MIR-17" class="mapitem" d="M 448.94531 438.82227 L 446.67578 441.75195 L 447.31641 445.91211 L 443.4707 450.00781 L 430.11328 449.68945 L 429.43359 455.54297 L 426.88086 461.76172 L 425.20117 469.60547 L 432.45312 476.91797 L 436.98047 477.41992 L 442.15625 482.25195 L 442.65039 485.09375 L 446.95703 489.21094 L 442.36133 499.01953 L 435.83398 500.60352 L 435.64844 506.58789 L 433.42383 511.375 L 428.30664 515.35742 L 429.70703 522.56836 L 437.59961 526.03906 L 436.67578 530.16992 L 436.98047 540.46289 L 438.81836 550.2207 L 443.52344 554.02734 L 447.23438 559.73047 L 444.5625 566.08398 L 445.16016 574.38281 L 448.03125 574.91797 L 449.37891 584.44727 L 448.4375 594.07617 L 453.23438 596.3418 L 455.44336 604.66797 L 450.03516 606.33789 L 444.90625 605.19141 L 440.30273 607.77734 L 443.76367 615.4375 L 444.06445 619.42969 L 439.94141 621.77539 L 439.85352 631.73242 L 442.81641 636.26367 L 444.4668 643.58594 L 442.05664 647.66211 L 442.96875 654.0957 L 439.26758 659.66016 L 443.82422 664.38867 L 454.23047 666.66406 L 453.02539 670.1543 L 458.36328 674.5918 L 463.87109 674.17578 L 470.65234 670.98828 L 473.14062 667.5293 L 478.17773 666.60156 L 484.66602 667.63281 L 490.19727 672.29883 L 496.35742 671.99805 L 499.82227 683.60742 L 496.54688 693.7832 L 492.77734 694.76367 L 494.98242 699.79883 L 498.9375 704.06641 L 497.32617 706.4043 L 497.70508 712.66992 L 500.71094 712.51367 L 503.90039 717.05273 L 509.68945 719.70898 L 518.25391 716.71484 L 521.96094 717.87695 L 527.76172 708.71875 L 532.76758 711.78906 L 534.36719 708.64258 L 531.9375 701.41602 L 537.35352 687.57422 L 540.70508 684.54492 L 546.46875 690.39844 L 545.08984 693.21484 L 553.35156 695.94141 L 561.31445 694.69531 L 560.00977 688.46289 L 565.52148 685.50195 L 565.72266 676.05469 L 572.89062 669.14844 L 577.89648 666.91406 L 581.65039 668.79492 L 587.96094 666.85156 L 587.44727 662.5625 L 590.83594 657.92188 L 594.7207 655.97656 L 596.82227 646.47266 L 595.70117 636.55859 L 593.125 631.45117 L 597.76367 624.30664 L 601.35938 622.71875 L 602.92383 613.375 L 599.70312 613.40625 L 596.82227 604.71875 L 591.94727 604.58594 L 589.06641 601.27344 L 586.77148 595.42969 L 580.33789 600.4707 L 575.34766 598.14844 L 568.68359 599.09766 L 566.4707 602.10352 L 562.22266 601.92773 L 554.60938 595.41016 L 555.61914 585.9043 L 554.94531 577.02148 L 557.87305 575.30469 L 567.48633 575.25781 L 571.34375 573.10352 L 567.93164 568.48438 L 563.46484 565.6582 L 561.58594 555.20508 L 562.1543 551.64844 L 560.33398 540.85156 L 561.83008 535.86914 L 569.0625 537.48828 L 574.97461 542.29883 L 575.8418 534.21094 L 567.81641 527.87891 L 571.55273 521.9707 L 571.46484 514.57422 L 554.06055 515.70703 L 552.4707 512.19531 L 546.94336 509.45508 L 547.08594 506.48242 L 543.11523 503.08398 L 544.27344 495.26367 L 541.32227 485.52734 L 543.31641 481.6582 L 542.48633 470.46094 L 542.92188 463.71094 L 541.4043 453.28125 L 538.87891 452.23438 L 525.01953 458.56641 L 517.83594 456.43359 L 512.82227 458.15234 L 510.44336 455.51758 L 506.21094 457.41406 L 502.27734 456.48242 L 496.05273 460.56836 L 486.10938 458.76758 L 479.36719 454.27734 L 475.43555 445.05664 L 464.49609 439.79883 L 455.53516 440.48438 L 448.94531 438.82227 z M 500.94922 590.40039 L 502.02344 592.00977 L 502.1543 592.50391 L 502.58203 593.25391 L 502.98633 593.63867 L 502.56445 594.22656 L 502.61328 594.57812 L 503.09375 594.49609 L 508.23633 594.24023 L 508.30664 596.07227 L 508.4082 598.29492 L 509.31641 598.24805 L 509.66016 598.25586 L 511.65039 598.50586 L 511.85742 598.87695 L 511.49023 600.05273 L 512.21875 600.26172 L 513.24023 600.10742 L 512.94336 600.81641 L 511.82812 603.4668 L 511.48242 604.90625 L 511.71484 604.85156 L 512.82617 604.7168 L 513.46094 604.7168 L 514.35742 605.16992 L 514.82031 605.42578 L 515.41992 605.33203 L 515.74609 605.08789 L 516.54297 604.98633 L 517.35547 604.89258 L 517.81836 605.03516 L 518.06836 605.39258 L 518.53711 605.33789 L 518.92383 605.43359 L 517.14258 606.96094 L 513.99414 608.14258 L 511.41797 611.375 L 509.625 612.54297 L 508.66797 616.55859 L 508.53906 616.92383 L 508.25391 617.31445 L 507.57617 617.86914 L 507.45117 618.1875 L 507.45117 618.50391 L 507.58789 618.89062 L 509.14453 620.52539 L 507.43359 621.81055 L 506.9707 622.0332 L 506.86328 622.05273 L 506.29883 622.34375 L 501.69141 622.83008 L 501.51367 620.26953 L 500.4043 620.35742 L 500.32617 619.28125 L 498.12305 619.63281 L 497.28125 619.69336 L 496.81055 620.4375 L 496.3418 621.35742 L 495.47461 622.00586 L 493.94336 621.9375 L 493.21875 623.51953 L 490.2207 623.85742 L 489.67969 623.7832 L 489.0332 623.45898 L 488.78906 623.19531 L 488.70117 623.37695 L 487.85742 623.08008 L 486.86523 624.45898 L 486.18359 623.68945 L 485.70117 623.25586 L 487.38867 620.93164 L 487.18555 620.59961 L 487.12109 620.63281 L 484.53125 619.94531 L 484.37695 620.67383 L 482.13867 620.03906 L 482.13867 619.29492 L 480.86914 619.33594 L 480.12109 616.22656 L 481.05273 615.68555 L 481.03516 614.8418 L 481.08203 613.19141 L 479.95898 613.125 L 479.89453 610.65039 L 479.00977 610.46094 L 478.14258 610.22461 L 478.2207 610.08398 L 478.62305 609.65039 L 479.1875 608.56836 L 479.45508 607.70312 L 480.36328 607.15625 L 480.55859 607.02148 L 481.51367 606.58789 L 482.32812 605.93945 L 483.14062 605.52734 L 483.55664 605.44727 L 483.7832 605.4668 L 483.88867 604.18164 L 484.2168 604.23633 L 486.16992 604.29688 L 485.94922 600.45117 L 483.98438 599.86328 L 483.84766 599.83594 L 483.48633 598.28906 L 482.46484 597.6875 L 482.67773 597.51172 L 482.89258 597.45117 L 483.86523 597.34961 L 484.18555 597.26758 L 485.03516 596.69336 L 485.68945 599.33008 L 487.69531 597.86328 L 487.73828 598.11914 L 489.36523 597.89648 L 489.22266 597.17969 L 489.47656 597.14648 L 489.94727 596.51758 L 490.53516 596.81445 L 490.71875 594.88867 L 491.63281 594.96289 L 491.37695 592.13867 L 491.3125 591.27344 L 496.36523 591.58984 L 498.24219 591.16406 L 500.50977 590.625 L 500.94922 590.40039 z" >
	<title>Пловдив област</title>
	</path>
    <path id="MIR-18" class="mapitem" d="M790.061,141.905 786.396,145.655 787.847,157.017 786.793,160.725 780.146,164.041 784.099,173.326 782.483,175.885 784.574,182.828 788.817,184.677 799.525,184.823 802.58,188.604 801.94,194.008 796.93,196.165 797.34,200.52 794.471,205.467 795.06,209.616 800.723,215.544 797.09,220.884 790.522,223.363 783.114,221.414 777.18,226.675 773.142,224.476 770.632,219.691 770.248,215.011 765.923,217.116 762.207,213.064 760.419,218.932 755.593,222.225 749.692,223.458 748.177,243.146 753.121,247.686 754.017,252.671 765.94,242.99 769.121,247.647 777.474,251.393 781.85,256.987 787.924,260.52 784.881,266.726 788.002,274.217 796.128,271.364 804.062,270.395 803.892,274.313 809.47,280.205 810.237,284.646 805.456,286.944 807.584,295.833 815.247,297.281 821.211,296.655 829.175,300.636 836.343,301.792 837.301,292.916 841.418,289.314 843.466,281.623 851.329,280.196 853.778,274.377 848.842,268.08 858.699,266.173 856.737,262.145 858.815,259.175 865.203,260.592 868.42,255.128 865.087,248.619 866.98,241.316 875.442,240.373 875.488,233.354 879.073,231.328 885.032,233.266 892.085,229.833 893.514,224.277 897.917,217.78 905.032,218.391 906.299,216.642 902.012,207.503 900.382,202.741 894.994,199.909 892.916,193.156 889.142,189.461 884.909,189.963 881.315,179.504 874.755,178.801 874.33,174.175 867.749,170.071 866.733,173.767 862.631,175.3 855.834,174.564 855.577,169.02 850.075,169.344 842.336,167.011 839.78,163.655 831.72,160.194 827.338,156.721 827.62,150.336 823.076,145.796 818.804,145.725 811.871,150.493 805.915,143.919 805.412,141.116 794.996,142.317 790.061,141.905 z" >
	<title>Разград</title>
	</path>
    <path id="MIR-19" class="mapitem" d="m 754.017,252.671 -0.896,-4.985 -4.944,-4.54 1.515,-19.688 5.901,-1.233 4.826,-3.293 1.788,-5.868 3.716,4.052 4.325,-2.105 0.384,4.68 2.51,4.785 4.038,2.199 5.934,-5.261 7.408,1.949 6.568,-2.479 3.633,-5.34 -5.663,-5.928 -0.589,-4.149 2.869,-4.947 -0.41,-4.355 5.01,-2.157 0.64,-5.404 -3.055,-3.781 -10.708,-0.146 -4.243,-1.849 -2.091,-6.943 1.616,-2.559 -3.953,-9.285 6.647,-3.316 1.054,-3.708 -1.451,-11.362 3.665,-3.75 -1.242,-9.911 4.315,-1.878 0.526,-3.979 -5.188,-1.261 -4.159,-5.935 -9.001,2.656 -6.729,4.586 -12.917,6.064 -8.867,-0.101 -7.759,4.698 -4.219,5.704 -4.021,9.146 -11.371,7.122 -7.995,5.925 -11.616,16.694 -1.707,4.293 -4.649,4.751 -7.992,4.097 -4.042,7.641 -11.527,5.835 -7.435,-0.035 -12.444,6.049 -8.211,5.593 -3.686,0.685 1.379,3.59 -4.678,7.979 -7.276,4.51 -4,0.699 3.603,9.867 3.144,0.904 5.126,7.82 5.438,-1.636 0.69,13.787 -3.428,2.434 1.862,3.22 5.288,2.009 7.261,7.734 8.072,0.974 1.204,-6.092 5.203,0.118 3.56,7.174 8.28,1.833 6.153,3.762 6.983,-0.1 2.424,1.853 7.016,-2.464 0.852,-1.817 7.643,-2.016 0.436,-4.452 6.468,-0.857 3.163,-7.019 5.409,-4.228 0.793,-8.499 2.136,-7.668 5.616,-0.624 3.245,-2.292 4.076,1.046 4.222,-1.602 8.529,2.38 m -41.248,38.017 -3.434,5.519 0.805,3.776 4.835,3.275 5.85,0.492 2.466,-3.133 -0.414,-6.792 -1.831,-2.357 -8.277,-0.78 z" >
	<title>Русе</title>
	</path>
    <path id="MIR-20" class="mapitem" d="M1025.23,131.892 1021.25,120.903 1016.04,116.394 1010.14,125.422 984.443,122.781 971.879,125.422 964.093,113.477 952.433,109.27 947.146,96.1607 941.208,98.9045 932.389,97.2527 924.326,92.4534 917.267,94.0526 910.226,93.3496 907.552,91.3847 898.514,94.1235 882.28,94.4576 873.51,98.8234 859.328,107.828 850.274,109.886 844.254,109.433 839.306,111.895 828.219,115.117 819.627,113.694 798.196,119.384 788.774,117.658 784.313,118.941 788.472,124.876 793.66,126.137 793.134,130.116 788.819,131.994 790.061,141.905 794.996,142.317 805.412,141.116 805.915,143.919 811.871,150.493 818.804,145.725 823.076,145.796 827.62,150.336 827.338,156.721 831.72,160.194 839.78,163.655 842.336,167.011 850.075,169.344 855.577,169.02 855.834,174.564 862.631,175.3 866.733,173.767 867.749,170.071 874.33,174.175 874.755,178.801 881.315,179.504 884.909,189.963 889.142,189.461 892.916,193.156 894.994,199.909 900.382,202.741 902.012,207.503 910.524,202.469 911.389,200.388 919.879,202.661 919.346,209.81 925.688,213.816 931.968,211.102 939.538,214.87 942.119,211.246 937.113,204.719 937.638,195.165 944.606,188.166 945.641,185.17 951.605,179.371 958.897,176.551 967.193,175.214 972.862,165.678 974.918,167.285 979.043,163.76 984.149,164.428 987.247,169.808 993.434,168.511 994.33,163.442 997.212,158.78 998.88,149.843 1002.26,150.216 1007.15,156.856 1013.5,152.705 1014.87,143.119 1017.99,141.228 1015.55,136.462 1018.58,133.849 1025.23,131.892 z" >
	<title>Силистра</title>
	</path>
    <path id="MIR-21" class="mapitem" d="M750.648,576.374 753.994,569.418 760.469,559.083 761.608,554.286 766.214,547.856 760.785,544.888 759.432,548.659 754.96,550.398 753.328,541.436 754.866,537.984 761.939,538.201 762.645,533.003 761.827,526.021 764.464,521.331 769.161,524.196 779.049,527.322 780.656,523.284 787.577,515.471 794.375,512.477 788.566,507.922 789.184,504.019 795.611,496.085 803.026,500.636 808.712,499.206 813.161,494.655 816.375,496.605 822.474,494.429 823.472,490.18 830.021,487.751 831.322,485.048 838.788,484.11 841.052,478.977 838.931,466.222 840.383,463.707 849.228,467.074 847.452,457.241 843.674,456.385 839.31,447.483 829.851,443.91 827.85,434.099 824.497,432.909 827.761,426.629 825.598,417.86 828.935,411.998 825.25,405.726 820.044,403.447 819.009,399.383 820.763,391.946 824.463,388.349 812.814,381.453 799.797,386.953 788.836,378.262 784.653,381.473 782.363,376.734 770.701,378.887 764.325,383.345 764.314,391.348 758.617,395.288 754.438,393.419 750.228,397.978 747.663,398.834 750.714,404.966 746.149,411.61 740.966,411.949 736.462,416.336 729.923,419.761 732.109,424.679 730.518,430.44 722.569,433.779 720.29,438.289 714.107,441.848 703.439,439.33 698.773,439.54 696.494,441.913 690.847,442.828 686.367,449.099 687.163,454.051 690.284,455.688 691.566,464.997 695.969,474.003 694.13,478.719 698.109,479.807 695.923,485.458 702.296,495.41 694.362,500.889 695.868,505.32 701.994,515.081 704.698,521.168 698.402,525.336 697.429,527.648 699.267,534.579 701.902,535.068 703.501,548.116 708.56,554.306 707.525,559.959 714.879,560.506 718.409,563.86 718.309,569.435 724.077,567.321 729.023,569.026 729.533,573.721 734.662,574.228 741.441,577.008 750.648,576.374 z" >
	<title>Сливен</title>
	</path>
    <path id="MIR-22" class="mapitem" d="M572.429,820.55 572.686,817.728 568.669,813.282 563.893,811.793 566.726,803.355 569.6,801.069 567.56,794.728 571.399,793.04 571.399,786.305 567.56,785.643 570.774,776.91 570.086,772.769 566.065,767.876 558.619,764.678 554.471,771.19 550.141,773.302 545.321,766.715 544.166,757.81 540.987,755.94 542.899,748.196 549.031,748.256 554.172,742.815 557.648,741.311 555.316,735.47 556.73,729.686 553.922,723.907 553.034,715.232 554.019,713.029 548.869,708.38 550.18,701.128 553.352,695.942 545.09,693.214 546.468,690.399 540.705,684.544 537.353,687.574 531.937,701.416 534.367,708.643 532.768,711.789 527.762,708.718 521.961,717.876 518.253,716.715 509.69,719.709 503.9,717.052 500.71,712.514 497.705,712.67 497.327,706.404 498.937,704.066 494.982,699.799 492.777,694.763 496.547,693.784 499.822,683.607 496.357,671.999 490.197,672.298 484.666,667.633 478.177,666.602 473.14,667.53 470.653,670.988 463.871,674.176 458.363,674.591 453.025,670.154 454.23,666.664 443.825,664.389 439.267,659.66 437.444,661.367 439.847,668.651 433.52,677.031 427.074,679.394 424.173,678.766 417.708,693.599 416.823,701.634 418.83,705.422 413.979,709.061 407.676,719.53 401.075,715.02 393.228,714.474 391.675,709.73 384.19,715.759 373.506,726.933 379.478,731.376 374.743,744.45 376.643,747.074 373.205,752.604 370.857,759.887 370.843,765.815 373.847,760.731 378.352,758.448 380.92,761.207 386.965,761.409 392.823,767.663 395.657,761.383 401.263,759.407 406.883,752.703 408.618,756.167 414.575,761.654 414.39,768.278 422.812,764.98 425.445,767.187 429.042,762.146 441.069,765.804 445.769,757.822 451.729,756.373 454.572,753.751 459.664,758.56 458.312,761.332 461.274,766.989 460.641,771.052 463.032,777.839 467.076,779.859 467.574,786.65 469.457,790.026 476.875,788.184 478.749,791.828 487.611,791.697 491.47,793.089 494.15,801.395 504.727,810.935 506.998,808.823 508.078,800.676 507.408,797.116 513.577,797.421 518.755,799.179 522.045,795.213 535.838,803.3 550.07,805.969 554.894,813.051 562.103,813.963 563.893,816.96 572.429,820.55 z" >
	<title>Смолян</title>
	</path>
    <path id="MIR-23" class="mapitem" d="m 1385.3138,180.27221 c 0.9004,6.5039 1.8744,13.27275 2.6889,19.62115 -3.3847,-1.07405 -4.6228,-1.30094 -6.1093,2.87888 4.1477,0.47185 6.7447,1.68352 4.2771,5.97288 -0.2579,4.51682 -1.7761,7.08544 -6.4319,4.93862 -4.2246,-0.33895 -8.8989,-1.40686 -11.7054,-4.38972 -0.1588,-1.75031 -1.8903,-1.15204 -1.3985,-2.89057 -0.7034,-1.06149 -2.2757,-3.05078 -2.4411,-4.0605 -0.2531,-2.13107 -2.3426,-6.56411 -4.7691,-7.10938 -0.7773,1.07042 -2.3354,1.73077 -2.63,3.07014 -2.5097,-2.09657 -5.0731,-5.22917 -7.5586,-6.72065 -1.1691,3.39744 -3.351,1.89382 -4.9132,-0.62598 -0.7759,-2.69213 -5.3682,2.70928 -4.3188,-0.77433 0.3508,-1.61854 -1.392,-1.67976 -0.1909,-3.81856 0,-1.35974 -2.95,-1.37245 -3.8912,-0.35161 -1.9939,1.69938 -5.6357,3.03648 -8.18,2.52222 -1.3129,-1.52334 -5.8372,0.40482 -3.18,2.8184 -1.8902,0.98542 -3.816,4.22082 -1.8619,5.51204 -1.7757,0.98944 -4.1207,4.37232 -5.6492,1.55862 -1.0602,-1.94111 -3.0592,-1.61047 -4.4716,-1.2398 -2.6685,1.08422 -5.3754,3.66339 -8.6342,4.40736 -2.6107,1.67879 -5.2835,3.8108 -7.2756,4.68243 -1.6412,3.00262 -6.2619,2.4439 -8.4574,0.75108 -0.6779,0.45382 -5.4224,3.55471 -3.2418,4.95009 0.4396,2.83617 2.369,4.98698 3.5992,7.06061 -0.8006,0.84535 -2.1732,2.42743 -0.9012,3.21845 -0.9932,3.95871 -6.1076,3.16085 -7.9272,6.31576 0,2.63744 -4.1172,2.17476 -3.3324,4.81527 -1.3265,1.34811 1.6355,3.20104 2.4806,2.15028 1.1064,-0.54343 1.9059,-2.77482 3.92,-2.07034 2.2291,0.32289 3.254,-0.37607 5.2597,0.34982 2.2398,-0.65689 4.3703,-0.35567 6.1225,0.74309 2.3143,-0.10688 5.0204,0.26303 6.4067,2.30772 1.8987,-0.74689 3.7893,1.04006 5.4197,1.33006 1.2072,0.73604 1.3028,3.63508 2.9111,3.25004 1.5188,0.0856 1.2604,2.21828 2.5508,1.87892 1.3567,-0.79061 3.7798,-0.64603 4.0005,1.29113 2.1193,2.79421 5.8527,2.54553 9.0995,1.97857 2.4833,-0.49807 3.3407,1.61194 3.2418,3.20114 0.3485,1.74204 2.4977,1.66785 2.9993,3.54879 2.0449,1.37934 1.6351,3.23014 0.8601,5.29101 -1.1276,1.89709 -3.2918,2.15187 -0.3495,2.87889 1.3693,0.94691 1.2782,4.1674 3.0914,2.27148 2.0458,-1.87686 2.4266,0.0202 3.6993,1.44907 1.4161,1.83737 2.273,3.99671 3.6807,5.75003 1.4488,0.89615 3.1618,1.89742 4.8081,2.22006 1.3365,0.86068 3.0004,1.35516 3.8903,2.80852 2.2629,0.3139 3.6874,1.50045 5.5099,2.30087 4.1528,-1.32071 5.0409,3.44041 7.4099,5.18936 1.8363,1.00652 4.2869,2.06342 5.5029,3.99956 0.5888,0.96036 2.1485,1.05419 2.1007,2.50991 0.5388,0.87551 1.4081,3.49848 2.7903,1.64995 0.3139,-1.32809 1.0241,-1.92762 2.1298,-2.6194 1.2476,-2.2099 4.5255,-1.837 6.5214,-2.95106 0.6629,-0.58786 2.9226,-0.63805 2.0677,-2.12899 -0.3585,-0.6679 -1.0403,-1.06238 -1.0904,-2.41009 0.3089,-1.98302 -2.0019,-2.20168 -1.2724,-4.10915 -0.7085,-0.70682 1.8506,-1.94287 -0.011,-2.24001 -1.4191,-0.24392 -2.7721,-1.68169 -3.8203,-2.21053 0.9531,-2.10061 -3.1614,-2.05029 -0.099,-3.36887 1.8371,-1.15767 3.2276,-2.6983 5.12,-3.88079 0.9715,-2.25812 3.8541,-1.86133 5.0088,-0.0604 1.9987,2.10676 4.9212,2.96905 7.6116,2.00006 2.3056,1.89714 4.9901,2.79918 7.837,2.24274 4.5353,-0.60438 2.3995,4.19808 2.7118,6.7689 3.959,2.14946 3.0693,1.38651 4.6937,3.8059 1.7737,1.97766 7.1063,3.66581 4.876,5.48694 1.5822,1.61756 -0.8177,2.20126 0.6608,5.40647 -1.8811,1.43299 0.7417,4.86367 -1.8746,7.31647 -1.7825,1.08579 -1.0231,2.77828 -0.5978,4.16392 1.1072,1.43441 1.5173,1.43956 1.1805,3.25977 -1.3068,1.08777 -1.0243,2.69979 -0.6015,3.77922 2.2981,0.87236 1.8376,3.72063 3.6902,5.30079 1.612,2.48368 5.466,-0.17265 5.6096,-2.76976 4.4796,-3.04532 3.0345,3.809 7.4203,1.78906 2.024,-3.34902 6.1889,-1.44501 7.2005,1.27434 2.4078,-0.37253 5.3959,1.0882 8.2598,-1.22486 2.9214,2.5249 5.4836,-3.76803 8.9656,-2.08194 3.3817,0.57342 5.2793,-1.11839 5.0232,-4.82696 0.6453,-2.84885 -3.2861,-5.60671 -1.3892,-9.30078 0.4132,-3.15861 -5.9539,-2.46146 -3.6883,-6.60327 -2.1301,-2.20396 -2.4819,-4.86297 -3.3518,-6.95724 -1.8607,-1.90647 -8.7349,-1.89053 -4.709,-5.08007 2.8026,-3.52596 -0.7193,-5.93867 -3.5166,-3.62613 -2.9455,-2.56877 -5.2977,-2.64763 -8.8023,-1.3974 -3.085,-1.40063 -5.7139,-5.57001 -5.5964,-7.89142 -1.8082,-1.56575 -2.9318,-4.39652 -6.3672,-4.9676 -5.2098,0.3419 -0.7824,-4.30572 -1.339,-7.04713 -3.7117,-2.23059 4.7533,-4.0443 3.1615,-5.2059 -4.9504,-2.34728 3.9999,-4.25156 -0.1012,-6.41324 -3.3332,-1.15784 -1.7509,-5.50072 -2.6694,-7.52614 1.1849,-2.97569 1.6212,-6.27966 1.4141,-9.54022 1.3201,-3.92769 -2.513,-5.29103 -5.7154,-5.58403 0.8175,-5.06541 -6.1607,2.72763 -5.4859,-2.46926 3.0517,-1.84089 2.3345,-7.33246 -2.0807,-6.78544 -4.5079,-3.15896 -4.1249,2.8671 -8.572,0.62384 0.6709,-3.39733 4.7242,-4.27273 -0.6312,-4.4297 -1.2764,-2.61681 1.0106,-4.04306 -0.699,-6.96608 -0.1372,-3.22843 0.835,-5.99862 -0.3612,-9.06321 0.1819,-2.59537 -5.0737,-1.54361 -4.9776,-3.95139 -0.7196,-1.36505 -3.123,-3.13826 -5.5427,-3.78909 -0.5794,-3.5509 -0.38,-3.12744 -4.7019,-3.13168 z">
	<title>София МИР 23</title>
	</path>
	<path id="MIR-24" class="mapitem" d="m 1406.3724,108.03393 c -0.9819,0.45525 -5.0673,1.5679 -4.1575,2.80831 -0.3885,1.51259 0.4869,2.69539 -0.821,3.89063 -1.5592,1.54432 -1.3744,4.47393 -3.8299,5.33984 -2.1808,2.03342 -1.7134,5.24266 -2.681,8.02962 -3.8744,2.33702 -0.3209,6.04624 -2.7398,8.90335 0.9771,3.96371 -1.7209,6.66411 -3.4871,9.89106 0.9467,2.30474 -0.8629,4.90919 -0.1056,5.73522 -1.3898,2.64601 -2.5014,3.85697 0.2928,5.73177 2.941,2.27786 0.2521,5.47128 -1.8977,5.20705 -2.0338,0.82221 -1.5878,6.53101 -4.4232,6.49216 -1.8231,2.37513 0.7771,5.59045 -1.6973,6.76401 -0.6372,1.78184 -4.5607,4.52401 -4.8818,1.64584 0.244,-1.3179 0.376,-3.14634 -0.7412,-3.93944 -0.68,-1.67184 -1.8752,-2.96095 -2.8508,-4.11133 -2.7612,0.21273 -1.1543,-3.12305 -3.4796,-2.90041 -1.3893,-0.50631 -2.8229,-1.09931 -2.2498,-2.71876 -1.8043,-0.22303 -2.3228,-1.6911 -3.4089,-2.9708 -1.8789,-1.07662 -3.25,-2.93497 -2.9915,-5.04883 -2.8347,0.10989 -5.5047,1.11802 -7.4517,-0.0582 -2.6539,0.35797 -6.1287,-1.22069 -8.1469,-0.68102 -3.9151,2.69792 -2.8276,8.46357 -5.003,12.32905 -0.5272,2.61404 -3.1173,6.38366 -3.6344,7.66048 -1.8941,-0.46111 -5.6912,0.56284 -3.1759,2.72805 2.5274,2.54265 0.1481,1.26662 -0.8081,2.82586 -0.2629,2.76094 -1.2561,5.97572 -3.9335,6.83425 3.5069,0.94919 6.6835,-1.78802 9.4106,-3.24057 1.4764,0.27369 3.2629,0.32508 2.0703,2.29076 -0.6728,1.70582 1.3861,1.59232 0.2618,3.68966 1.3351,0.3669 4.3457,-2.4198 5.4213,0.80273 1.3487,2.86409 3.1167,1.89114 4.0489,-0.46299 2.5148,1.62504 5.2221,5.22774 7.6016,6.59965 0.8688,-1.42041 2.4733,-3.85429 4.4578,-2.39834 0.1345,2.56232 3.8538,5.07953 2.8389,7.16995 0.9173,1.05194 2.0038,2.85032 2.4805,3.86906 -0.01,1.42802 1.3134,1.62561 2.1136,3.30347 4.5245,3.76325 10.5879,3.1973 16.0152,4.51667 0.7796,-3.407 1.6448,-6.99467 2.4505,-10.26977 -5.1346,0.33551 -6.1257,-4.0496 -2.2011,-5.39063 3.4438,3.20846 3.2169,-1.28838 2.3112,-3.89747 -0.623,-4.92111 -1.3387,-9.8171 -2.0399,-14.73328 5.2244,-1.64765 3.108,2.82041 6.1699,3.22071 1.8989,2.63149 3.8095,1.87099 4.2988,4.8008 2.4688,0.67986 5.0811,1.38683 5.12,4.71187 -0.5535,4.73772 4.6336,0.58745 7.7049,0.65593 3.5543,-0.43925 0.5048,-4.34094 5.707,-3.02812 0.3688,1.89402 6.3902,3.44767 4.9103,-0.24026 -1.1172,-1.94591 -0.4232,-4.35287 0.6185,-6.73039 0.3615,-3.09078 4.6088,-3.21179 6.23,-3.86341 4.2001,0.65684 5.1059,-0.76665 8.5354,-0.25208 2.6172,-0.88053 2.8538,-3.10908 4.6845,-4.62844 1.2394,-2.39278 3.4863,-4.28493 2.1101,-6.81637 4.1201,-1.66757 0.4374,-8.54871 5.5899,-9.73827 -3.0708,-2.56255 0.082,-5.70627 2.3594,-7.31054 3.3168,1.89181 4.1257,-1.47049 5.66,-3.09657 0.027,-3.40503 0.3579,-6.43679 -0.1007,-9.77498 0.988,-2.80436 3.1428,-5.23476 2.9814,-8.7999 2.4004,-1.73636 2.6451,-6.56268 5.6238,-6.86489 4.7681,1.89993 3.1663,-6.2487 0.6908,-4.70096 -2.7829,4.17122 -4.9985,-1.21367 -8.2205,-0.71955 -2.2149,1.31592 -6.2415,4.85778 -5.1432,-0.35825 0.8951,-4.41614 -2.0079,-4.89906 -4.6086,-4.76902 -2.0853,-0.35838 -5.0866,-3.46817 -6.8344,-1.51308 -2.0707,1.61536 -3.4282,4.17843 -6.3067,4.52879 -2.6261,0.53458 -4.8166,3.55623 -5.3538,6.24816 0.172,1.56589 -0.7667,4.62753 -2.3571,4.58986 -0.4691,-1.13057 -3.0184,-0.11137 -3.3314,-1.51914 -2.5544,-0.18146 -6.087,-1.04997 -6.0801,-4.64062 -1.8755,-1.82186 -1.0746,-3.53003 -4.2892,-6.21003 -0.049,-2.20494 -3.9257,-3.48086 -5.3058,-5.41793 z">
	<title>София МИР 24</title>
	</path>
	<path id="MIR-25" class="mapitem" d="m 1325.013,93.24292 c -1.4765,1.09562 -4.6566,1.00024 -5.0896,2.35931 -0.2156,3.06581 -0.143,6.98918 -3.4209,8.45126 -1.4161,0.89693 -3.3631,3.05411 -2.4305,4.789 1.6631,1.83869 -0.8026,6.49455 2.44,5.22994 1.1522,2.23604 -3.658,4.91068 -0.8304,6.0098 -1.0681,2.44315 1.1285,4.14013 -1.1598,6.57035 -0.5502,0.14263 -4.5576,2.85411 -0.9999,3.98037 0.3326,2.45343 2.5939,5.22697 1.5318,8.49023 -1.6361,0.57849 -4.9387,0.55402 -7.0703,3.12891 -1.198,1.50535 -2.0169,3.18419 -4.7699,3.30081 -3.8164,-2.41211 -3.9681,4.03504 -4.9218,3.68948 -1.8341,2.06032 0.4034,1.97402 1.5707,1.07028 -0.8862,2.01741 2.6619,1.27714 1.9297,3.75017 -2.701,1.57678 4.3545,4.58584 0.291,4.90036 0.045,4.66305 -2.9509,8.98298 -6.2692,11.91013 -2.7906,1.47361 -3.7637,-2.36399 -7.4899,-1.40095 -2.8289,0.0144 -5.2673,4.23078 -6.4286,1.22286 -3.7254,-0.69575 -2.6512,-5.65398 -6.5426,-3.73235 -2.6412,0.15463 -4.6815,-1.27473 -7.5196,-1.70108 -3.5613,2.42082 -5.1813,1.98011 -8.3295,1.77208 -1.815,-0.25611 -4.6425,0.12383 -6.6901,2.98765 -0.096,3.61271 -4.5933,4.94531 -6.25,7.8418 0.5729,2.76887 -3.4262,7.03006 1.6631,6.80425 1.5848,0.77128 4.4515,1.85076 7.3998,2.20042 2.9762,-1.22556 4.5948,0.0915 7.3961,1.67501 3.6792,1.5751 1.1191,6.96808 3.8716,7.41015 1.5736,4.18582 4.5263,1.32795 8.1237,2.92619 3.0868,0.44597 4.8194,2.97528 8.0853,3.34341 3.6736,-0.98961 2.6382,4.72182 5.7076,4.872 1.983,2.34191 7.7669,1.54893 7.9623,-1.61223 3.9365,0.41572 4.5298,-3.73057 8.3209,-4.40605 3.854,-0.69682 6.4459,-4.89363 9.8503,-4.06506 1.9219,-0.39404 2.9242,4.55808 5.0604,1.84508 1.1213,-1.06547 4.2411,-1.91673 1.6906,-3.25556 0.3007,-1.8021 1.5473,-3.39744 2.8017,-4.31831 -2.5675,-2.9221 2.1829,-3.6849 3.4902,-2.94143 3.6393,-0.93924 3.5284,-4.97329 4.2897,-7.91017 2.7204,1.19762 1.637,-0.51649 0.4819,-1.75974 -2.5418,-2.35044 2.0658,-3.20544 3.8603,-2.53896 -0.2326,-3.00744 3.2311,-5.64434 3.4361,-8.95032 1.8151,-4.02278 1.0593,-9.67049 5.5539,-11.94032 2.0307,2.84746 5.8547,0.15355 7.8708,1.99022 1.9791,0.57667 4.812,-0.96313 6.9787,-0.0703 -0.9863,3.42552 3.7437,4.25375 4.5216,7.12111 1.448,4.1e-4 1.917,0.82348 1.691,2.13879 1.1732,1.14247 4.2722,0.67277 3.6982,2.94139 2.3894,0.63932 2.6705,2.15109 4.062,3.60938 0.6303,1.4391 1.9103,2.17432 1.5202,3.83988 0.081,1.91695 -0.425,3.41244 2.6576,2.84627 1.9785,-3.1022 3.7633,-3.55711 3.3805,-6.07496 -0.4963,-3.81262 2.4182,-3.43116 3.7012,-7.2105 -0.2947,-3.72697 3.0072,-2.25859 4.9081,-5.00799 -0.6472,-2.88679 -4.9329,-4.37527 -3.0404,-6.17833 0.5802,-2.88536 1.0197,-3.15289 1.3298,-5.89155 -0.5373,-2.30658 1.1028,-5.39908 3.1196,-7.67613 -0.6122,-3.57037 1.9011,-6.66128 0.7438,-9.88285 0.5726,-2.77757 4.2164,-4.94999 2.6197,-8.44322 1.6131,-2.13006 2.8925,-3.24787 4.4199,-5.47071 0.3318,-1.73516 1.8846,-3.14587 2.3802,-4.50968 -0.2818,-0.99083 0.6413,-2.82882 -1.0294,-3.25985 0.3368,-0.68891 -2.3654,0.64204 -1.7924,-1.25031 -0.439,-1.33085 -0.5518,-0.24174 -1.4149,-1.06702 -0.3166,-0.70223 -1.1748,0.29253 -1.0327,-1.03186 0.2277,-0.6287 -0.257,-1.20332 -0.3723,-1.80081 -0.4584,-0.0566 -0.4188,-0.96811 -1.2199,-0.89076 -0.3877,-0.27694 -1.083,-0.35165 -1.1412,-0.89829 -0.5142,0.91277 -2.0474,-0.23588 -1.9495,1.0387 -0.792,1.24998 -0.9153,3.25125 -1.6132,4.71093 -3.9275,1.57305 -4.8805,-4.08958 -7.8498,-3.09661 -1.1816,3.02416 -4.1839,3.46763 -6.199,5.01653 -3.3078,-0.82506 -4.7481,3.05709 -6.4359,3.74976 -1.1007,2.59057 -5.1295,-0.062 -7.3436,1.53011 -2.067,1.46028 -4.5888,5.52601 -6.9924,2.30991 2.8931,-0.18812 3.8906,-3.88873 0.8609,-3.69135 -3.03,-0.11121 -5.1371,-1.41285 -7.7875,-2.77552 -3.5595,1.01096 0.5869,-4.50485 -2.5328,-3.97439 -0.9483,-2.95923 -4.1592,-2.78108 -5.8711,-4.52929 -2.5753,-2.28077 1.0064,-4.56077 -3.2597,-4.93944 -2.3686,2.83943 -2.865,-0.44631 -5.1503,-1.50979 -2.3094,-0.71519 -3.8325,-3.37945 -6.1909,-3.56746 -0.2893,0.0453 -0.5621,-0.0798 -0.841,-0.14279 z m 8.67,81.79101 c 0.1081,-0.0101 0.1053,0.76537 0,0 z m -0.057,0.63086 c -0.1442,0.45496 -0.08,0.11223 0,0 z">
	<title>София МИР 25</title>
	</path>
    <path id="MIR-26" class="mapitem" d="M190.155,459.563 193.79,454.322 201.005,452.531 206.092,453.179 208.455,455.741 215.517,455.539 218.045,451.591 218.594,445.668 216.118,444.53 225.205,435.597 225.973,424.404 224.43,420.137 229.969,412.374 237.67,415.681 241.5,422.594 247.291,424.77 253.141,424.634 260.173,418.968 264.464,418.06 269.32,421.879 274.429,422.842 276.962,428.53 281.64,430.605 283.915,425.023 288.615,421.601 294.343,423.692 299.851,428.733 296.607,436.277 296.421,443.217 291.516,447.276 289.761,455.529 286.572,460.415 280.821,460.609 273.87,468.11 268.905,469.428 269.888,476.792 275.861,478.646 274.765,482.628 280.648,484.358 279.817,491.973 281.914,496.174 278.948,505.706 283.115,507.958 286.842,513.624 290.774,514.275 295.695,519.426 299.55,531.305 296.352,534.386 290.811,536.621 286.247,534.558 278.294,536.793 275.755,532.058 277.088,519.062 271.742,514.736 271.71,511.131 258.413,509.702 260.59,519.371 255.165,522.984 245.683,515.625 238.685,511.54 236.059,507.019 232.363,505.885 226.664,510.604 225.78,515.068 222.078,516.544 219.853,521.135 219.421,531.689 223.556,538.927 220.429,545.899 223.801,545.202 226.495,550.457 232.618,546.6 238.435,556.989 236.292,559.535 242.201,566.312 249.072,570.112 249.81,578.242 243.754,580.129 243.383,584.092 239.772,587.577 237.404,592.678 237.435,597.469 240.606,600.033 246.605,599.611 254.116,596.353 260.366,594.955 262.147,603.871 272.664,606.309 275.297,610.175 271.425,613.478 269.117,617.879 277.796,621.887 282.867,620.805 286.371,609.087 286.863,603.157 289.786,601.194 293.37,602.729 297.193,598.246 302.979,599.236 306.297,603.117 311.461,600.103 313.864,595.703 319.071,596.237 325.026,590.168 331.592,588.721 331.901,585.583 337.022,581.113 336.883,576.833 341.039,572.162 341.835,566.112 344.461,566.512 346.254,571.435 353.422,574.669 359.1,565.945 353.202,562.566 351.418,556.634 352.016,544.546 355.152,542.956 362.159,542.923 366.964,540.755 368.408,532.551 371.259,525.303 366.909,522.609 362.777,525.328 353.816,523.846 351.267,518.962 343.797,513.095 344.94,509.419 340.684,502.653 344.237,499.035 352.526,496.19 356.365,496.255 365.056,502.449 367.504,501.978 374.572,495.588 379.601,497.028 382.305,495.093 386.237,487.099 389.852,483.639 394.958,484.134 399.129,481.163 410.222,482.275 413.019,485.361 417.267,493.809 421.57,494.589 423.841,501.352 428.221,497.052 433.775,497.45 435.834,500.604 442.361,499.019 446.957,489.211 442.651,485.093 442.156,482.251 436.981,477.42 432.454,476.917 425.201,469.605 426.881,461.761 429.434,455.542 430.114,449.689 419.477,449.439 411.891,444.206 403.301,444.06 401.694,445.68 394.215,446.748 388.933,445.064 386.098,440.82 389.728,433.12 390.555,414.779 391.768,412.774 388.508,402.195 383.95,403.544 376.141,400.846 375.716,396.678 371.019,394.61 372.34,385.94 370.478,384.85 367.829,376.597 368.408,370.354 364.665,369.834 358.567,373.85 354.309,370.832 353.353,377.258 349.845,379.42 346.261,375.217 326.996,372.016 323.632,368.569 316.042,368.355 310.036,375.536 303.895,378.649 296.506,374.116 294.996,370.729 287.352,375.278 283.758,384.392 277.928,384.719 273.757,380.049 273.834,376.661 269.995,372.524 268.627,366.735 261.536,360.706 263.452,353.85 267.488,350.888 264.61,345.842 254.383,344.164 249.153,345.83 237.945,345.09 236.515,351.458 232.537,354.535 226.497,352.296 224.643,356.718 218.687,356.331 212.422,357.548 200.286,356.122 192.596,343.013 188.39,342.115 188.043,338.039 183.439,334.29 181.129,336.119 177.586,342.693 179.486,345.15 179.11,350.86 176.972,357.108 165.46,365.809 161.708,376.407 155.256,380.207 152.9,384.476 141.427,390.222 140.369,403.21 134.723,414.038 138.652,416.826 138.267,420.459 140.659,425.051 145.464,426.548 150.578,422.58 154.092,423.781 152.323,430.627 155.718,434.387 159.65,430.683 162.532,431.578 163.536,439.285 169.681,444.74 175.274,442.286 178.563,444.88 177.776,448.37 187.185,448.734 185.691,454.043 187.618,458.866 190.155,459.563 z" >
	<title>София област</title>
	</path>
	<path id="MIR-27" class="mapitem" d="M690.847,442.828 686.05,441.415 676.155,441.257 671.814,442.294 666.808,441.168 667.565,436.05 662.698,435.33 660.837,438.431 650.787,440.463 645.874,448.888 643.402,445.194 639.54,446.944 636.851,452.162 627.829,451.741 624.368,446.36 618.389,447.106 618.381,450.233 614.465,453.816 612.48,451.49 602.214,452.413 596.914,448.24 592.38,448.961 587.9,446.069 584.887,451.935 580.8,449.196 579.827,445.25 572.041,439.864 564.293,447.43 548.931,450.382 543.505,444.481 540.238,448.71 541.404,453.282 542.921,463.71 542.486,470.461 543.316,481.658 541.323,485.527 544.274,495.264 543.115,503.084 547.086,506.482 546.943,509.455 552.47,512.196 554.061,515.707 571.465,514.575 571.552,521.971 567.816,527.879 575.841,534.21 574.974,542.298 569.063,537.489 561.831,535.869 560.334,540.852 562.155,551.648 561.585,555.206 563.464,565.658 567.931,568.485 571.343,573.103 567.487,575.257 557.873,575.305 554.946,577.021 555.62,585.904 554.61,595.411 562.222,601.927 566.471,602.103 568.684,599.097 575.347,598.148 580.337,600.471 586.771,595.429 589.067,601.273 591.948,604.586 596.823,604.718 599.703,613.406 602.924,613.375 613.847,618.406 620.413,616.914 623.858,611.026 622.476,601.448 627.006,601.207 633.371,597.428 639.003,602.492 644.263,598.733 646.279,593.258 649.661,591.082 653.452,596.063 650.462,598.271 651.119,606.721 655.198,607.687 661.841,606.329 666.012,607.859 669.465,612.442 669.805,617.494 672.764,625.634 680.048,626.118 684.791,621.301 688.704,622.022 692.315,617.24 691.678,613.793 694.47,609.835 699.862,614.038 714.493,617.244 723.102,628.146 724.906,634.763 728.131,638.067 731.418,637.813 736.806,632.825 742.016,631.53 746.427,633.341 748.551,622.989 744.596,614.964 744.179,610.118 745.794,601.158 750.158,598.132 754.727,588.872 750.382,583.65 750.648,576.374 741.441,577.008 734.662,574.228 729.533,573.721 729.023,569.026 724.077,567.321 718.309,569.435 718.409,563.86 714.879,560.506 707.525,559.959 708.56,554.306 703.501,548.116 701.902,535.068 699.267,534.579 697.429,527.648 698.402,525.336 704.698,521.168 701.994,515.081 695.868,505.32 694.362,500.889 702.296,495.41 695.923,485.458 698.109,479.807 694.13,478.719 695.969,474.003 691.566,464.997 690.284,455.688 687.163,454.051 686.367,449.099 690.847,442.828 z" >
	<title>Стара Загора</title>
	</path>
    <path id="MIR-28" class="mapitem" d="M720.825,303.75 728.686,304.589 733.886,307.575 737.361,312.872 731.385,317.402 736.651,329.109 739.118,329.932 741.151,335.738 736.64,343.302 733.403,343.572 733.457,350.46 731.456,351.853 731.943,358.539 730.166,362.406 735.002,369.064 734.447,373.856 737.201,377.758 742.889,378.403 740.749,383.567 735.605,384.737 733.415,389.629 737.188,392.381 742.24,392.575 749.193,395.41 750.228,397.978 754.438,393.419 758.617,395.288 764.314,391.348 764.325,383.345 770.701,378.887 782.363,376.734 784.653,381.473 788.836,378.262 799.797,386.953 812.814,381.453 824.463,388.349 833.601,382.926 830.996,378.055 831.357,373.645 839.116,373.173 838.952,368.938 842.871,362.334 839.804,357.717 841.218,349.147 840.399,345.452 848.834,344.784 852.681,335.078 856.52,333.212 859.572,325.757 857.65,316.637 851.584,312.336 853.639,305.774 855.694,304.144 855.872,296.053 861.495,293.534 863.751,290.068 860.908,281.367 856.543,282.193 851.329,280.196 843.466,281.623 841.418,289.314 837.301,292.916 836.343,301.792 829.175,300.636 821.211,296.655 815.247,297.281 807.584,295.833 805.456,286.944 810.237,284.646 809.47,280.205 803.892,274.313 804.062,270.395 796.128,271.364 788.002,274.217 784.881,266.726 787.924,260.52 781.85,256.987 777.474,251.393 769.121,247.647 765.94,242.99 754.017,252.671 745.488,250.291 741.266,251.893 737.19,250.847 733.945,253.139 728.329,253.763 726.193,261.431 725.4,269.93 719.991,274.158 716.828,281.177 710.36,282.034 709.924,286.486 712.769,290.688 721.046,291.468 722.877,293.825 723.291,300.617 720.825,303.75 z" >
	<title>Търговище</title>
	</path>
    <path id="MIR-29" class="mapitem" d="M581.65,668.795 578.249,672.142 578.968,677.409 582.152,681.916 582.168,685.268 591.47,690.634 596.437,688.816 601.914,689.811 607.49,683.492 611.414,695.903 615.539,695.327 621.394,696.956 627.535,703.885 631.73,702.395 633.738,704.749 641.332,705.515 646.422,704.173 649.018,709.59 654.487,712.028 653.846,718.725 656.349,722.465 653.977,729.669 647.465,735.474 648.971,740.159 655.368,740.44 656.874,743.534 660.991,739.574 666.491,740.795 668.337,743.047 673.861,740.019 676.618,732.333 682.52,730.164 684.699,733.099 691.241,733.701 688.932,739.4 690.77,741.595 688.252,746.529 683.524,747.817 681.284,757.36 681.114,762.58 676.371,763.621 685.842,769.041 690.461,777.158 692.701,775.538 696.471,780.135 687.557,787.96 688.005,794.033 692.161,798.072 695.946,799.298 701.693,798.668 704.906,801.318 710.894,817.698 715.45,818.213 719.807,815.921 722.113,811.427 727.533,809.919 734.298,811.014 739.294,808.093 743.799,808.711 749.572,795.1 748.715,792.036 754.687,785.121 747.972,778.181 753.278,766.257 752.113,757.92 746.518,757.454 747.713,744.278 741.722,739.506 736.958,738.817 731.566,729.662 730.866,722.93 732.188,718.37 735.463,715.651 740.449,716.336 741.964,712.065 748.939,708.278 758.625,711.783 762.164,710.017 764.921,714.057 769.88,716.579 776.826,717.422 780.222,716.005 779.312,706.653 782.309,697.663 786.409,688.95 788.177,688.487 816.961,688.235 821.538,677.624 822.058,672.547 825.123,668.031 821.108,661.896 817.123,653.849 814.109,651.824 814.524,647.751 810.97,644.413 815.262,637.903 814.413,631.182 812.13,627.474 811.114,617.498 812.4,612.573 815.259,609.332 816.84,603.182 809.349,599.997 805.379,600.32 804.235,603.461 799.11,599.706 794.251,605.179 788.446,598.749 782.154,602.033 774.63,596.962 769.794,597.273 764.109,594.182 761.575,590.977 758.563,593.512 754.727,588.872 750.158,598.132 745.794,601.158 744.179,610.118 744.596,614.964 748.551,622.989 746.427,633.341 742.016,631.53 736.806,632.825 731.418,637.813 728.131,638.067 724.906,634.763 723.102,628.146 714.493,617.244 699.862,614.038 694.47,609.835 691.678,613.793 692.315,617.24 688.704,622.022 684.791,621.301 680.048,626.118 672.764,625.634 669.805,617.494 669.465,612.442 666.012,607.859 661.841,606.329 655.198,607.687 651.119,606.721 650.462,598.271 653.452,596.063 649.661,591.082 646.279,593.258 644.263,598.733 639.003,602.492 633.371,597.428 627.006,601.207 622.476,601.448 623.858,611.026 620.413,616.914 613.847,618.406 602.924,613.375 601.36,622.718 597.764,624.307 593.125,631.451 595.702,636.558 596.822,646.473 594.721,655.976 590.835,657.921 587.448,662.562 587.961,666.852 581.65,668.795 z" >
	<title>Хасково</title>
	</path>
    <path id="MIR-30" class="mapitem" d="M851.329,280.196 856.543,282.193 860.908,281.367 863.751,290.068 861.495,293.534 855.872,296.053 855.694,304.144 853.639,305.774 851.584,312.336 857.65,316.637 859.572,325.757 856.52,333.212 852.681,335.078 848.834,344.784 840.399,345.452 841.218,349.147 839.804,357.717 842.871,362.334 838.952,368.938 839.116,373.173 831.357,373.645 830.996,378.055 833.601,382.926 824.463,388.349 820.763,391.946 819.009,399.383 820.044,403.447 825.25,405.726 832.257,403.722 839.464,405.152 839.287,411.731 847.096,410.187 855.609,410.389 863.573,398.632 874.434,401.508 876.852,399.488 888.601,402.187 891.313,399.739 900.235,399.618 900.559,404.909 904.538,404.506 916.14,399.505 918.079,399.9 915.731,393.9 912.077,390.581 912.355,382.381 920.35,377.443 930.732,378.629 938.727,373.314 937.684,366.694 932.47,364.728 930.686,359.908 932.633,350.48 938.063,344.18 945.069,341.528 946.552,338.824 951.184,339.922 948.812,327.546 949.959,324.013 946.675,321.943 943.762,312.002 948.066,309.051 953.231,307.931 955.594,301.678 954.683,297.747 950.77,295.147 951.504,282.958 960.469,276.112 961.763,268.905 958.789,263.323 961.067,258.63 955.343,255.705 954.772,253.18 959.963,246.371 966.791,244.727 976.208,237.115 976.98,231.578 973.512,228.862 954.525,234.089 953.01,225.411 948.607,221.561 939.847,219.085 939.538,214.87 931.968,211.102 925.688,213.816 919.346,209.81 919.879,202.661 911.389,200.388 910.524,202.469 902.012,207.503 906.299,216.642 905.032,218.391 897.917,217.78 893.514,224.277 892.085,229.833 885.032,233.266 879.073,231.328 875.488,233.354 875.442,240.373 866.98,241.316 865.087,248.619 868.42,255.128 865.203,260.592 858.815,259.175 856.737,262.145 858.699,266.173 848.842,268.08 853.778,274.377 851.329,280.196 z" >
	<title>Шумен</title>
	</path>
    <path id="MIR-31" class="mapitem" d="M821.108,661.896 825.59,656.284 831.348,651.676 835.357,650.093 855.913,653.119 861.702,645.517 869.929,650.783 876.786,645.152 882.569,645.826 887.647,642.137 892.359,643.684 897.326,637.747 896.815,633.148 901.351,632.973 904.977,626.445 903.932,622.545 910.899,619.766 896.098,615.316 895.982,610.719 890.069,605.355 888.613,600.59 893.279,588.255 889.725,582.956 891.711,574.562 889.494,570.508 885.094,568.479 884.044,564.3 885.836,558.849 879.471,549.421 875.268,545.507 876.319,541.79 882.87,538.531 888.122,539.183 893.901,536.738 893.993,531.362 890.492,530.193 890.397,526.325 878.409,526.634 879.032,520.016 872.019,510.2 865.267,502.679 866.123,496.654 861.453,493.013 861.611,483.558 859.232,479.019 853.546,473.443 854.512,471.041 849.228,467.074 840.383,463.707 838.931,466.222 841.052,478.977 838.788,484.11 831.322,485.048 830.021,487.751 823.472,490.18 822.474,494.429 816.375,496.605 813.161,494.655 808.712,499.206 803.026,500.636 795.611,496.085 789.184,504.019 788.566,507.922 794.375,512.477 787.577,515.471 780.656,523.284 779.049,527.322 769.161,524.196 764.464,521.331 761.827,526.021 762.645,533.003 761.939,538.201 754.866,537.984 753.328,541.436 754.96,550.398 759.432,548.659 760.785,544.888 766.214,547.856 761.608,554.286 760.469,559.083 753.994,569.418 750.648,576.374 750.382,583.65 754.727,588.872 758.563,593.512 761.575,590.977 764.109,594.182 769.794,597.273 774.63,596.962 782.154,602.033 788.446,598.749 794.251,605.179 799.11,599.706 804.235,603.461 805.379,600.32 809.349,599.997 816.84,603.182 815.259,609.332 812.4,612.573 811.114,617.498 812.13,627.474 814.413,631.182 815.262,637.903 810.97,644.413 814.524,647.751 814.109,651.824 817.123,653.849 821.108,661.896 z" >
	<title>Ямбол</title>
	</path>
	<path id="MIR-100" class="mapitem" d="m 1502,485 a 42,42 0 0 1 -42,42 42,42 0 0 1 -42,-42 42,42 0 0 1 42,-42 42,42 0 0 1 42,42 z" >
	<title>Чужбина</title>
	</path>
  </g>
  
	<g>
	  <rect class="frame0125" width="360" height="380" x="1202" y="0"></rect>
	  <rect class="frame0125" width="180" height="200" x="1202" y="380"></rect>
	  <rect class="frame0125" width="180" height="200" x="1382" y="380"></rect>
	  
	  <path class="worlddecorationline" d="m 1427.801,460.21423 c 24.0704,13.54397 39.5605,12.59513 65.2636,-0.42105"></path>
	  <path class="worlddecorationline" d="m 1493.4952,511.35967 c -24.6017,-12.75028 -42.0807,-11.82987 -65.2569,1.02338"></path>
	  <path class="worlddecorationline" d="m 1417.6956,486.74076 84.6323,-0.84211"></path>
	  <path class="worlddecorationline" d="m 1459.8012,444.2141 1.6843,82.52698"></path>
	  <path class="worlddecorationline" d="m 1459.8012,444.2141 c -32.0002,16.00013 -31.5629,68.16895 1.6843,82.52698"></path>
	  <path class="worlddecorationline" d="m 1461.829,526.9807 c 31.9273,-16.14501 31.2536,-68.3113 -2.0583,-82.51849"></path>
	</g>
</svg>
